<svg width="42" height="42" viewBox="0 0 42 42" fill="none" xmlns="http://www.w3.org/2000/svg">
<ellipse cx="20.6486" cy="20.7" rx="20.6486" ry="20.7" fill="#F6F6F6"/>
<path d="M30.176 21C30.176 15.9729 26.0914 11.824 21 11.824C15.936 11.824 11.824 15.9455 11.824 21C11.824 25.5891 15.2268 29.4578 19.7229 30.0867C19.7277 30.0876 19.7319 30.0896 19.765 30.0927C25.2896 30.839 30.176 26.5291 30.176 21ZM29.2128 21.6515L25.2053 21L29.2128 20.3485C29.2458 20.7685 29.2484 21.1994 29.2128 21.6515ZM21.6515 12.7872L21 16.7946L20.3485 12.7872C20.7686 12.7542 21.1994 12.7516 21.6515 12.7872ZM12.7872 20.3485L16.7947 21L12.7872 21.6515C12.7542 21.2315 12.7517 20.8006 12.7872 20.3485ZM20.3485 29.2128L21 25.2054L21.6515 29.2128C21.2152 29.2471 20.7851 29.2471 20.3485 29.2128ZM24.3939 28.5065C24.1901 27.2533 23.7275 24.4091 23.7015 24.2488C23.6687 24.0219 23.4735 23.8476 23.2375 23.8476C22.9786 23.8476 22.7688 24.0575 22.7688 24.3163C22.7688 24.3536 22.7689 24.3552 23.5 28.8503C23.2006 28.9459 22.8938 29.0247 22.5807 29.0857L21.9004 24.9014C21.8588 24.6459 21.6182 24.4724 21.3625 24.5139C21.1915 24.5417 21.0577 24.659 21 24.8099C20.9423 24.6589 20.8085 24.5417 20.6375 24.5139C20.3819 24.472 20.1412 24.6457 20.0996 24.9014L19.4193 29.0857C19.1062 29.0246 18.7994 28.9459 18.5 28.8503C19.2311 24.3552 19.2312 24.3536 19.2312 24.3163C19.2312 24.0575 19.0214 23.8476 18.7625 23.8476C18.5265 23.8476 18.3313 24.0219 18.2985 24.2488C18.2725 24.4091 17.8099 27.2533 17.6061 28.5065C15.7871 27.6809 14.3191 26.2129 13.4935 24.394C14.7471 24.1901 17.5921 23.7273 17.7513 23.7015C17.9782 23.6688 18.1525 23.4735 18.1525 23.2376C18.1525 22.9788 17.9426 22.7689 17.6837 22.7689C17.6464 22.7689 17.6448 22.769 13.1498 23.5001C13.0542 23.2007 12.9754 22.8938 12.9143 22.5808L17.0986 21.9005C17.3542 21.8589 17.5276 21.6181 17.4861 21.3626C17.4583 21.1918 17.3413 21.0579 17.1906 21.0002C17.3414 20.9424 17.4584 20.8085 17.4861 20.6376C17.5276 20.3821 17.3542 20.1412 17.0986 20.0997L12.9143 19.4194C12.9754 19.1063 13.0542 18.7995 13.1498 18.5001C17.6448 19.2312 17.6465 19.2313 17.6837 19.2313C17.9426 19.2313 18.1525 19.0214 18.1525 18.7626C18.1525 18.5266 17.9782 18.3314 17.7513 18.2987C17.5921 18.2728 14.7471 17.8101 13.4935 17.6062C14.3192 15.7872 15.7871 14.3193 17.6061 13.4937C17.8099 14.7469 18.2725 17.5911 18.2985 17.7513C18.3313 17.9782 18.5265 18.1526 18.7625 18.1526C19.0214 18.1526 19.2312 17.9427 19.2312 17.6839C19.2312 17.6466 19.2311 17.645 18.5 13.1499C18.7994 13.0543 19.1062 12.9755 19.4193 12.9144L20.0996 17.0988C20.137 17.3288 20.3359 17.4924 20.5617 17.4924C20.7593 17.4924 20.9312 17.3703 21 17.1903C21.0576 17.3413 21.1914 17.4585 21.3624 17.4863C21.6186 17.5281 21.8589 17.3536 21.9004 17.0988L22.5807 12.9145C22.8938 12.9756 23.2006 13.0543 23.5 13.1499C22.7688 17.645 22.7687 17.6466 22.7687 17.6839C22.7687 17.9428 22.9786 18.1527 23.2375 18.1527C23.4735 18.1527 23.6687 17.9783 23.7014 17.7514C23.7274 17.5911 24.19 14.747 24.3939 13.4937C26.2129 14.3193 27.6808 15.7873 28.5065 17.6062C27.2529 17.8101 24.4078 18.2729 24.2487 18.2987C24.0218 18.3314 23.8475 18.5267 23.8475 18.7626C23.8475 19.0215 24.0573 19.2313 24.3162 19.2313C24.3535 19.2313 24.3552 19.2313 28.8502 18.5001C28.9458 18.7996 29.0246 19.1064 29.0857 19.4195L24.9013 20.0998C24.6458 20.1413 24.4723 20.3821 24.5138 20.6376C24.5416 20.8085 24.6585 20.9424 24.8092 21.0002C24.6586 21.058 24.5416 21.1919 24.5138 21.3626C24.4723 21.6181 24.6458 21.859 24.9013 21.9005L29.0857 22.5808C29.0245 22.8939 28.9458 23.2008 28.8502 23.5002C24.3552 22.769 24.3535 22.7689 24.3162 22.7689C24.0573 22.7689 23.8475 22.9788 23.8475 23.2377C23.8475 23.4736 24.0218 23.6688 24.2487 23.7015C24.4078 23.7274 27.2529 24.1902 28.5065 24.394C27.6808 26.2129 26.2129 27.6809 24.3939 28.5065Z" fill="#024273"/>
<path d="M29.4853 12.5147C27.2188 10.2482 24.2053 9 21 9C17.7947 9 14.7812 10.2482 12.5147 12.5147C10.2482 14.7812 9 17.7947 9 21C9 24.2053 10.2482 27.2188 12.5147 29.4853C14.7812 31.7518 17.7947 33 21 33C24.2053 33 27.2188 31.7518 29.4853 29.4853C31.7518 27.2188 33 24.2053 33 21C33 17.7947 31.7518 14.7812 29.4853 12.5147ZM21 32.0625C14.9001 32.0625 9.9375 27.0999 9.9375 21C9.9375 14.9001 14.9001 9.9375 21 9.9375C27.0999 9.9375 32.0625 14.9001 32.0625 21C32.0625 27.0999 27.0999 32.0625 21 32.0625Z" fill="#024273"/>
<path d="M21.0216 25.4705C23.4899 25.4582 25.4809 23.4471 25.4686 20.9787C25.4563 18.5103 23.4452 16.5193 20.9769 16.5316C18.5085 16.544 16.5175 18.555 16.5298 21.0234C16.5422 23.4918 18.5532 25.4829 21.0216 25.4705Z" fill="#E95440"/>
<path d="M22.1648 19.3665C21.9024 19.3665 21.6961 19.5805 21.6961 19.8352C21.6961 20.0934 21.9065 20.3039 22.1648 20.3039C22.4235 20.3039 22.6335 20.093 22.6335 19.8352C22.6335 19.5802 22.4269 19.3665 22.1648 19.3665Z" fill="#024273"/>
<path d="M22.1648 21.6962C21.9024 21.6962 21.6961 21.9102 21.6961 22.1649C21.6961 22.4231 21.9065 22.6336 22.1648 22.6336C22.4235 22.6336 22.6335 22.4228 22.6335 22.1649C22.6335 21.9099 22.4269 21.6962 22.1648 21.6962Z" fill="#024273"/>
<path d="M19.8351 21.6962C19.5727 21.6962 19.3664 21.9102 19.3664 22.1649C19.3664 22.4231 19.5768 22.6336 19.8351 22.6336C20.0938 22.6336 20.3039 22.4228 20.3038 22.1649C20.3039 21.9099 20.0972 21.6962 19.8351 21.6962Z" fill="#024273"/>
<path d="M19.8351 19.3665C19.5727 19.3665 19.3664 19.5805 19.3664 19.8352C19.3664 20.0934 19.5768 20.3039 19.8351 20.3039C20.0938 20.3039 20.3038 20.0931 20.3038 19.8352C20.3039 19.5802 20.0972 19.3665 19.8351 19.3665Z" fill="#024273"/>
</svg>
