<svg width="40" height="37" viewBox="0 0 40 37" fill="none" xmlns="http://www.w3.org/2000/svg">
<ellipse cx="20" cy="18.5" rx="20" ry="18.5" fill="#F6F6F6"/>
<path fill-rule="evenodd" clip-rule="evenodd" d="M18.2858 12.4541C18.9328 12.4541 19.5652 12.6316 20.1031 12.964C20.641 13.2965 21.0601 13.769 21.3075 14.3218C21.5549 14.8746 21.6194 15.4828 21.4928 16.0695C21.3663 16.6562 21.0544 17.195 20.5966 17.6178C20.1389 18.0405 19.5558 18.3282 18.9211 18.4444C18.2865 18.5607 17.6288 18.5002 17.0314 18.2707C16.4339 18.0412 15.9235 17.653 15.5647 17.1552C15.2059 16.6573 15.0148 16.0723 15.0157 15.474C15.0157 14.672 15.3602 13.9029 15.9735 13.3358C16.5868 12.7687 17.4185 12.4501 18.2858 12.4501V12.4541Z" fill="#E8EDED"/>
<path fill-rule="evenodd" clip-rule="evenodd" d="M23.0707 23.4327C23.1127 23.5603 23.1221 23.6953 23.0982 23.8268C23.0742 23.9584 23.0176 24.0831 22.9328 24.191C22.8479 24.2989 22.7371 24.3871 22.6091 24.4487C22.4811 24.5103 22.3394 24.5436 22.1951 24.5459H14.4028C14.2586 24.5436 14.1168 24.5103 13.9889 24.4487C13.8609 24.3871 13.7501 24.2989 13.6652 24.191C13.5803 24.0831 13.5237 23.9584 13.4998 23.8268C13.4758 23.6953 13.4853 23.5603 13.5273 23.4327L13.965 22.0725C14.1383 21.5389 14.4929 21.0712 14.9763 20.7386C15.4597 20.4061 16.0461 20.2265 16.6486 20.2266H19.9494C20.5518 20.2265 21.1383 20.4061 21.6217 20.7386C22.1051 21.0712 22.4597 21.5389 22.6329 22.0725L23.0707 23.4327Z" fill="#E8EDED"/>
<path fill-rule="evenodd" clip-rule="evenodd" d="M21.7267 12.4541C22.3735 12.4541 23.0057 12.6315 23.5435 12.9638C24.0813 13.296 24.5004 13.7683 24.7479 14.3209C24.9954 14.8734 25.0602 15.4814 24.934 16.068C24.8078 16.6546 24.4964 17.1934 24.0391 17.6164C23.5817 18.0393 22.999 18.3273 22.3647 18.4439C21.7303 18.5606 21.0728 18.5007 20.4753 18.2719C19.8777 18.043 19.367 17.6554 19.0077 17.1581C18.6484 16.6608 18.4566 16.0762 18.4566 15.4781C18.4566 14.6761 18.8011 13.9069 19.4144 13.3398C20.0276 12.7727 20.8594 12.4541 21.7267 12.4541Z" fill="#181A1F"/>
<path fill-rule="evenodd" clip-rule="evenodd" d="M26.5028 23.4327C26.5448 23.5603 26.5542 23.6953 26.5303 23.8268C26.5064 23.9584 26.4497 24.0831 26.3649 24.191C26.28 24.2989 26.1692 24.3871 26.0412 24.4487C25.9132 24.5103 25.7715 24.5436 25.6273 24.5459H17.8481C17.7038 24.5436 17.5621 24.5103 17.4341 24.4487C17.3061 24.3871 17.1953 24.2989 17.1105 24.191C17.0256 24.0831 16.969 23.9584 16.945 23.8268C16.9211 23.6953 16.9305 23.5603 16.9725 23.4327L17.4103 22.0725C17.5835 21.5389 17.9381 21.0712 18.4215 20.7386C18.9049 20.4061 19.4914 20.2265 20.0938 20.2266H23.3946C23.9971 20.2265 24.5835 20.4061 25.0669 20.7386C25.5503 21.0712 25.9049 21.5389 26.0782 22.0725L26.5159 23.4327H26.5028Z" fill="#181A1F"/>
<path d="M25.6098 24.975H17.8481C17.6295 24.9753 17.4139 24.9284 17.2185 24.8378C17.023 24.7473 16.8532 24.6157 16.7226 24.4536C16.592 24.2915 16.5042 24.1034 16.4663 23.9044C16.4284 23.7053 16.4413 23.5008 16.5042 23.3072L16.942 21.947C17.1411 21.323 17.5539 20.7756 18.1184 20.3873C18.6829 19.9989 19.3684 19.7905 20.072 19.7934H23.3728C24.0764 19.7905 24.762 19.9989 25.3264 20.3873C25.8909 20.7756 26.3037 21.323 26.5029 21.947L26.9406 23.3072C27.0032 23.4998 27.0163 23.7033 26.9791 23.9014C26.9419 24.0995 26.8553 24.287 26.7261 24.4488C26.597 24.6106 26.4289 24.7424 26.2351 24.8338C26.0414 24.9251 25.8273 24.9735 25.6098 24.975ZM20.0764 20.6557C19.5736 20.6533 19.0836 20.8021 18.6802 21.0795C18.2767 21.3569 17.9817 21.748 17.8394 22.194L17.4016 23.5541C17.3815 23.6178 17.3774 23.6849 17.3898 23.7503C17.4021 23.8156 17.4305 23.8775 17.4728 23.9311C17.5151 23.9847 17.5702 24.0286 17.6337 24.0594C17.6973 24.0902 17.7677 24.107 17.8394 24.1087H25.6098C25.6815 24.107 25.7519 24.0902 25.8154 24.0594C25.879 24.0286 25.934 23.9847 25.9763 23.9311C26.0186 23.8775 26.0471 23.8156 26.0594 23.7503C26.0718 23.6849 26.0677 23.6178 26.0476 23.5541L25.6098 22.194C25.4675 21.748 25.1724 21.3569 24.769 21.0795C24.3655 20.8021 23.8756 20.6533 23.3728 20.6557H20.0764ZM15.3353 24.975H14.4029C14.1843 24.9753 13.9687 24.9284 13.7732 24.8378C13.5778 24.7473 13.408 24.6157 13.2773 24.4536C13.1467 24.2915 13.059 24.1034 13.021 23.9044C12.9831 23.7053 12.9961 23.5008 13.0589 23.3072L13.4967 21.947C13.696 21.3223 14.1095 20.7745 14.6749 20.386C15.2402 19.9976 15.9268 19.7896 16.6311 19.7934C16.6962 19.7876 16.7618 19.7944 16.8238 19.8134C16.8858 19.8324 16.9428 19.8632 16.9912 19.9038C17.0396 19.9444 17.0782 19.9939 17.1047 20.0491C17.1311 20.1044 17.1448 20.1641 17.1448 20.2245C17.1448 20.2849 17.1311 20.3447 17.1047 20.3999C17.0782 20.4552 17.0396 20.5047 16.9912 20.5453C16.9428 20.5859 16.8858 20.6167 16.8238 20.6357C16.7618 20.6547 16.6962 20.6615 16.6311 20.6557C16.1284 20.6533 15.6384 20.8021 15.2349 21.0795C14.8315 21.3569 14.5364 21.748 14.3941 22.194L13.9564 23.5541C13.9362 23.6178 13.9322 23.6849 13.9445 23.7503C13.9569 23.8156 13.9853 23.8775 14.0276 23.9311C14.0699 23.9847 14.1249 24.0286 14.1885 24.0594C14.252 24.0902 14.3224 24.107 14.3941 24.1087H15.3353C15.4004 24.1029 15.466 24.1097 15.528 24.1287C15.59 24.1477 15.647 24.1785 15.6954 24.2191C15.7438 24.2597 15.7824 24.3092 15.8089 24.3645C15.8353 24.4197 15.849 24.4794 15.849 24.5398C15.849 24.6003 15.8353 24.66 15.8089 24.7152C15.7824 24.7705 15.7438 24.82 15.6954 24.8606C15.647 24.9012 15.59 24.932 15.528 24.951C15.466 24.97 15.4004 24.9768 15.3353 24.971V24.975ZM21.7268 18.9312C20.9882 18.9312 20.2663 18.7286 19.6522 18.3492C19.0381 17.9698 18.5595 17.4305 18.2768 16.7995C17.9942 16.1686 17.9203 15.4743 18.0644 14.8044C18.2084 14.1346 18.5641 13.5193 19.0863 13.0364C19.6086 12.5535 20.2739 12.2246 20.9983 12.0914C21.7226 11.9581 22.4735 12.0265 23.1558 12.2879C23.8381 12.5492 24.4213 12.9918 24.8316 13.5597C25.242 14.1275 25.461 14.7951 25.461 15.4781C25.4598 16.3936 25.066 17.2712 24.366 17.9186C23.6659 18.5659 22.7168 18.9301 21.7268 18.9312ZM21.7268 12.8873C21.1727 12.8873 20.631 13.0392 20.1702 13.3239C19.7095 13.6086 19.3504 14.0132 19.1383 14.4866C18.9263 14.96 18.8708 15.481 18.9789 15.9835C19.087 16.4861 19.3538 16.9477 19.7457 17.3101C20.1375 17.6724 20.6367 17.9191 21.1802 18.0191C21.7237 18.1191 22.287 18.0678 22.799 17.8717C23.3109 17.6756 23.7485 17.3435 24.0563 16.9175C24.3642 16.4914 24.5285 15.9905 24.5285 15.4781C24.5285 14.7906 24.2335 14.1312 23.7082 13.6447C23.1829 13.1582 22.4702 12.8843 21.7268 12.8832V12.8873ZM17.6686 18.8785H17.5811C16.7284 18.7262 15.9596 18.3041 15.4068 17.6847C14.854 17.0653 14.5516 16.2873 14.5516 15.4842C14.5516 14.6811 14.854 13.903 15.4068 13.2836C15.9596 12.6642 16.7284 12.2421 17.5811 12.0898C17.7004 12.074 17.8217 12.1013 17.9198 12.166C18.0179 12.2308 18.0852 12.328 18.1077 12.4375C18.1303 12.547 18.1063 12.6603 18.0409 12.7539C17.9754 12.8474 17.8734 12.9141 17.7562 12.9399C17.1141 13.0514 16.5343 13.367 16.1172 13.8319C15.7 14.2969 15.4717 14.882 15.4717 15.4862C15.4717 16.0903 15.7 16.6755 16.1172 17.1404C16.5343 17.6054 17.1141 17.9209 17.7562 18.0325C17.8601 18.0609 17.9501 18.1217 18.0109 18.2046C18.0717 18.2875 18.0996 18.3873 18.0898 18.487C18.08 18.5868 18.0331 18.6803 17.9571 18.7517C17.8811 18.8231 17.7807 18.8679 17.673 18.8785H17.6686Z" fill="#181A1F"/>
</svg>
