<svg width="42" height="42" viewBox="0 0 42 42" fill="none" xmlns="http://www.w3.org/2000/svg">
<ellipse cx="20.6486" cy="20.7" rx="20.6486" ry="20.7" fill="#F6F6F6"/>
<path d="M26.3029 24.56C26.6968 24.56 27.0162 24.2406 27.0162 23.8467C27.0162 23.4527 26.6968 23.1333 26.3029 23.1333C25.9089 23.1333 25.5895 23.4527 25.5895 23.8467C25.5895 24.2406 25.9089 24.56 26.3029 24.56Z" fill="#181A1F"/>
<path d="M29.1495 18.8667H27.0162V13.8867C27.0138 13.3215 26.7886 12.7801 26.3895 12.38C26.1922 12.1812 25.9575 12.0235 25.6989 11.9159C25.4403 11.8083 25.163 11.7531 24.8829 11.7533H16.3495C15.7837 11.7533 15.2411 11.9781 14.841 12.3782C14.441 12.7782 14.2162 13.3209 14.2162 13.8867V18.8667H12.0829C11.5171 18.8667 10.9745 19.0914 10.5744 19.4915C10.1743 19.8916 9.94954 20.4342 9.94954 21V28.1133C9.94954 28.6791 10.1743 29.2217 10.5744 29.6218C10.9745 30.0219 11.5171 30.2467 12.0829 30.2467H29.1495C29.7153 30.2467 30.258 30.0219 30.658 29.6218C31.0581 29.2217 31.2829 28.6791 31.2829 28.1133V21C31.2829 20.4342 31.0581 19.8916 30.658 19.4915C30.258 19.0914 29.7153 18.8667 29.1495 18.8667ZM15.6362 13.8867C15.638 13.6986 15.7139 13.5189 15.8475 13.3866C15.9811 13.2542 16.1615 13.18 16.3495 13.18H24.8829C25.0721 13.18 25.2535 13.2551 25.3873 13.3889C25.5211 13.5227 25.5962 13.7041 25.5962 13.8933V18.8667H15.6362V13.8867ZM29.8629 28.1133C29.8629 28.3025 29.7877 28.484 29.6539 28.6177C29.5202 28.7515 29.3387 28.8267 29.1495 28.8267H12.0829C11.8937 28.8267 11.7122 28.7515 11.5785 28.6177C11.4447 28.484 11.3695 28.3025 11.3695 28.1133V21C11.3695 20.8108 11.4447 20.6294 11.5785 20.4956C11.7122 20.3618 11.8937 20.2867 12.0829 20.2867H29.1495C29.3387 20.2867 29.5202 20.3618 29.6539 20.4956C29.7877 20.6294 29.8629 20.8108 29.8629 21V28.1133Z" fill="#181A1F"/>
<path d="M14.9296 25.98H26.3096V27.4H14.9296V25.98Z" fill="#181A1F"/>
</svg>
