<svg width="40" height="37" viewBox="0 0 40 37" fill="none" xmlns="http://www.w3.org/2000/svg">
<ellipse cx="20" cy="18.5" rx="20" ry="18.5" fill="#F6F6F6"/>
<g clip-path="url(#clip0_879_7675)">
<path d="M22.2748 13.1042C22.0249 12.8739 21.6865 12.7445 21.3337 12.7445H18.6659C18.4904 12.7435 18.3165 12.7748 18.1542 12.8364C17.9919 12.8981 17.8445 12.989 17.7204 13.1037C17.5963 13.2185 17.4981 13.3549 17.4314 13.505C17.3648 13.6551 17.331 13.816 17.332 13.9783V15.6222H18.2226V13.9783C18.222 13.9243 18.2332 13.8708 18.2553 13.8208C18.2773 13.7708 18.31 13.7254 18.3513 13.6873C18.3925 13.6491 18.4416 13.6189 18.4956 13.5985C18.5497 13.578 18.6075 13.5678 18.6659 13.5682H21.3337C21.3915 13.5677 21.4488 13.578 21.5023 13.5984C21.5557 13.6188 21.6042 13.6489 21.6448 13.6869C21.6869 13.7248 21.7203 13.7701 21.7431 13.8201C21.7658 13.8702 21.7773 13.924 21.777 13.9783V15.6222H22.6676V13.9783C22.6666 13.6504 22.5254 13.3361 22.2748 13.1042Z" fill="black"/>
<path fill-rule="evenodd" clip-rule="evenodd" d="M23.6087 16.8021C23.3587 16.5718 23.0203 16.4425 22.6676 16.4424H17.332C17.1565 16.4414 16.9826 16.4727 16.8203 16.5344C16.658 16.596 16.5106 16.6869 16.3865 16.8017C16.2624 16.9164 16.1642 17.0528 16.0975 17.203C16.0309 17.3531 15.9971 17.514 15.9981 17.6763V23.0217C15.9981 23.349 16.1386 23.6628 16.3888 23.8942C16.639 24.1256 16.9782 24.2556 17.332 24.2556H22.6676C23.0213 24.2556 23.3606 24.1256 23.6108 23.8942C23.8609 23.6628 24.0014 23.349 24.0014 23.0217V17.6763C24.0005 17.3483 23.8593 17.0341 23.6087 16.8021ZM18.6659 22.6116H17.7792V18.0899H18.6698L18.6659 22.6116ZM20.4431 22.6116H19.5564V18.0899H20.447L20.4431 22.6116ZM22.2203 22.6116H21.3337V18.0899H22.2242L22.2203 22.6116Z" fill="black"/>
</g>
<defs>
<clipPath id="clip0_879_7675">
<rect width="14" height="12.95" fill="white" transform="translate(12.9998 12.025)"/>
</clipPath>
</defs>
</svg>
