<svg width="24" height="24" viewBox="0 0 24 24" fill="none" xmlns="http://www.w3.org/2000/svg">
<g clip-path="url(#clip0_77_1078)">
<path fill-rule="evenodd" clip-rule="evenodd" d="M5.25621 7.91303L6.0694 9.31881L6.88259 7.91303L8.28837 7.09984L6.88259 6.2867L6.0694 4.88092L5.25621 6.2867L3.84912 7.09984L5.25621 7.91303Z" fill="#E95440"/>
<path fill-rule="evenodd" clip-rule="evenodd" d="M10.381 5.77646L11.2765 7.32441L12.1707 5.77646L13.7186 4.88222L12.1707 3.98667L11.2765 2.43872L10.381 3.98667L8.83301 4.88222L10.381 5.77646Z" fill="#E95440"/>
<path fill-rule="evenodd" clip-rule="evenodd" d="M2.33691 15.0309H6.95157V11.7451H5.29332C4.39777 11.7451 3.85965 12.0081 3.42915 12.8612L2.33691 15.0309Z" fill="#E95440"/>
<path fill-rule="evenodd" clip-rule="evenodd" d="M10.8433 11.7451H14.7364V15.0309H10.8433V11.7451Z" fill="#E95440"/>
<path d="M22.5291 15.0183C21.8628 14.7285 20.9733 14.5622 20.0886 14.5622H19.677L17.617 12.1352C16.9378 11.3355 16.4951 11.294 15.5585 11.2764C15.5555 11.2764 15.5526 11.2763 15.5497 11.2763H5.29331C4.16442 11.2763 3.50311 11.6743 3.01045 12.6504L2.04811 14.5622H0.89925C0.403406 14.5622 0 14.9656 0 15.4614V18.8483C0 19.3441 0.403406 19.7476 0.89925 19.7476H3.42188C3.59217 20.7751 4.48664 21.5612 5.56172 21.5612C6.6368 21.5612 7.53122 20.7751 7.70156 19.7476H15.9637C16.134 20.7751 17.0284 21.5612 18.1035 21.5612C19.1786 21.5612 20.073 20.7751 20.2433 19.7476H22.4723C23.3147 19.7476 24 19.0629 24 18.2212V16.9297C24 16.3497 23.7448 15.5473 22.5291 15.0183ZM3.84759 13.0723C4.17563 12.4224 4.52691 12.2138 5.29331 12.2138H15.5452C16.3274 12.2285 16.4693 12.2321 16.9024 12.7419L18.4474 14.5622H3.09764L3.84759 13.0723ZM5.56172 20.6238C4.88241 20.6238 4.3297 20.0711 4.3297 19.3918C4.3297 18.7125 4.88241 18.1598 5.56172 18.1598C6.24103 18.1598 6.79374 18.7125 6.79374 19.3918C6.79374 20.0711 6.24103 20.6238 5.56172 20.6238ZM18.1035 20.6238C17.4241 20.6238 16.8714 20.0711 16.8714 19.3918C16.8714 18.7125 17.4241 18.1598 18.1035 18.1598C18.7828 18.1598 19.3355 18.7125 19.3355 19.3918C19.3355 20.0711 18.7828 20.6238 18.1035 20.6238ZM22.4723 18.8101H20.1931C19.9381 17.8955 19.0982 17.2223 18.1035 17.2223C17.1087 17.2223 16.2687 17.8955 16.0138 18.8101H7.65136C7.39641 17.8955 6.55645 17.2223 5.56172 17.2223C4.56698 17.2223 3.72698 17.8955 3.47208 18.8101H0.9375V17.5725H1.73902C1.99791 17.5725 2.20777 17.3626 2.20777 17.1038C2.20777 16.8449 1.99791 16.635 1.73902 16.635H0.9375V15.4997H20.0886C21.284 15.4997 23.0625 15.8806 23.0625 16.9297V16.9817H22.1933C21.9344 16.9817 21.7245 17.1916 21.7245 17.4505C21.7245 17.7094 21.9344 17.9192 22.1933 17.9192H23.0625V18.2212C23.0625 18.5459 22.7978 18.8101 22.4723 18.8101Z" fill="#024273"/>
<path d="M11.776 16.6868H9.7085C9.44961 16.6868 9.23975 16.8967 9.23975 17.1556C9.23975 17.4145 9.44961 17.6243 9.7085 17.6243H11.776C12.0349 17.6243 12.2447 17.4145 12.2447 17.1556C12.2447 16.8967 12.0349 16.6868 11.776 16.6868Z" fill="#024273"/>
</g>
<defs>
<clipPath id="clip0_77_1078">
<rect width="24" height="24" fill="white"/>
</clipPath>
</defs>
</svg>
