<svg width="24" height="24" viewBox="0 0 24 24" fill="none" xmlns="http://www.w3.org/2000/svg">
<g clip-path="url(#clip0_79_1483)">
<path d="M6.11035 6.08581V16.2829C6.11035 17.4018 6.81127 18.4479 7.89601 18.948L12 20.8399V3.72748C10.3847 4.89696 8.46362 5.66182 6.11035 6.08581Z" fill="#E95440"/>
<path d="M20.6665 3.50775C20.5764 3.41958 20.4567 3.37125 20.3284 3.37411C20.2569 3.37566 20.1859 3.37645 20.116 3.37645C19.5898 3.37645 19.0774 3.33478 18.5926 3.25256C15.0005 2.64333 13.3062 1.19034 12.3442 0.150422C12.2555 0.0545625 12.1308 0 12.0001 0C11.8695 0 11.7447 0.0545625 11.656 0.150422C10.6941 1.19034 8.99975 2.64333 5.40762 3.25252C4.92303 3.33473 4.41054 3.37645 3.88432 3.37645C3.81439 3.37645 3.7437 3.3757 3.67207 3.37411C3.54481 3.3713 3.42401 3.41944 3.33387 3.50761C3.24368 3.59583 3.19287 3.71658 3.19287 3.84272V16.2828C3.19287 18.5331 4.55876 20.6168 6.67264 21.5913L11.8039 23.9569C11.8661 23.9856 11.9331 23.9999 12.0001 23.9999C12.0671 23.9999 12.1341 23.9856 12.1964 23.9569L17.3276 21.5913C19.4415 20.6168 20.8074 18.5331 20.8074 16.2828V3.84277C20.8074 3.71667 20.7566 3.59592 20.6665 3.50775ZM19.8699 16.2828C19.8699 18.1686 18.7179 19.9181 16.9351 20.74L12.0001 23.0151L7.06517 20.74C5.28237 19.9181 4.13042 18.1686 4.13042 16.2828V4.31119C4.62326 4.29994 5.10453 4.25489 5.56447 4.17684C9.04845 3.58598 10.896 2.2387 12.0001 1.14384C13.1042 2.23866 14.9518 3.58594 18.4359 4.17689C18.8959 4.25489 19.3772 4.29994 19.8699 4.31119V16.2828Z" fill="#024273"/>
</g>
<defs>
<clipPath id="clip0_79_1483">
<rect width="24" height="24" fill="white"/>
</clipPath>
</defs>
</svg>
