<svg width="20" height="20" viewBox="0 0 20 20" fill="none" xmlns="http://www.w3.org/2000/svg">
<g clip-path="url(#clip0_879_7596)">
<path d="M15.3033 13.7795C15.0735 13.7795 14.865 13.6864 14.7142 13.5355C14.5633 13.3847 14.4701 13.1761 14.4701 12.9463L14.4701 6.70847L5.28606 15.8926C4.9602 16.2184 4.43341 16.2184 4.10755 15.8926C3.78169 15.5667 3.78169 15.0399 4.10755 14.714L13.2916 5.52996L7.05374 5.52993C6.59294 5.52993 6.22057 5.15756 6.22057 4.69676C6.22057 4.23596 6.59303 3.8635 7.05383 3.8635L15.3034 3.86349C15.7642 3.86349 16.1366 4.23584 16.1366 4.69664L16.1366 12.9462C16.1366 13.407 15.7641 13.7795 15.3033 13.7795Z" fill="white"/>
</g>
<defs>
<clipPath id="clip0_879_7596">
<rect width="20" height="20" fill="white"/>
</clipPath>
</defs>
</svg>
