<svg width="21" height="20" viewBox="0 0 21 20" fill="none" xmlns="http://www.w3.org/2000/svg">
<g clip-path="url(#clip0_954_6702)">
<path d="M15.8033 13.7795C15.5735 13.7795 15.365 13.6864 15.2142 13.5355C15.0633 13.3847 14.9701 13.1761 14.9701 12.9463L14.9701 6.70846L5.78606 15.8925C5.4602 16.2184 4.93341 16.2184 4.60755 15.8925C4.28169 15.5667 4.28169 15.0399 4.60755 14.714L13.7916 5.52995L7.55374 5.52992C7.09294 5.52992 6.72057 5.15754 6.72057 4.69675C6.72057 4.23595 7.09303 3.86348 7.55383 3.86348L15.8034 3.86348C16.2642 3.86348 16.6366 4.23583 16.6366 4.69663L16.6366 12.9462C16.6366 13.407 16.2641 13.7795 15.8033 13.7795Z" fill="white"/>
</g>
<defs>
<clipPath id="clip0_954_6702">
<rect width="20" height="20" fill="white" transform="translate(0.5)"/>
</clipPath>
</defs>
</svg>
